# xmcd CD database file
#
# Track frame offsets:
#	150
#	27672
#	59670
#	81312
#	110552
#	127860
#	150662
#	162187
#	193485
#	214750
#	238497
#
# Disc length: 3512 seconds
#
# Revision: 0
# Processed by: cddbd v1.4PL0 Copyright (c) Steve Scherf et al.
# Submitted via: CDex 1.40Release
#
DISCID=a40db60b
DTITLE=Fabio Jegher - atmospheres
DYEAR=1998
DGENRE=Native American
TTITLE0=arcadia 17
TTITLE1=six even
TTITLE2=ice night
TTITLE3=no idea
TTITLE4=halley atmosphere
TTITLE5=bop no meaning
TTITLE6=parisan thoroughfare
TTITLE7=just paffutella
TTITLE8=assae ah!
TTITLE9=we get the houses
TTITLE10=moon for glauco
EXTD=YEAR: 1998 ID3G: 64
EXTT0=
EXTT1=
EXTT2=
EXTT3=
EXTT4=
EXTT5=
EXTT6=
EXTT7=
EXTT8=
EXTT9=
EXTT10=
PLAYORDER=
